# xmcd CD database file
#
# Track frame offsets:
#	150
#	24702
#	37112
#	54112
#	65120
#	75252
#	86827
#	98310
#	120080
#	136160
#	149730
#	169740
#	179362
#	201967
#	217162
#	241827
#
# Disc length: 3437 seconds
#
# Revision: 0
# Processed by: cddbd v1.5.2PL0 Copyright (c) Steve Scherf et al.
# Submitted via: CDex 1.51
#
DISCID=da0d6b10
DTITLE=Various Artist - CATCH THE MUSIC-JAZZ HITS ON TV
DYEAR=2004
DGENRE=Jazz
TTITLE0=Lady's Tango
TTITLE1=My Favorite Things
TTITLE2=Open Mind
TTITLE3=Never on Sunday
TTITLE4=Night and Day
TTITLE5=Goody Goody
TTITLE6=LOVE
TTITLE7=Metal Dragon
TTITLE8=Over The Rainbow
TTITLE9=Someone To Watch Over Me
TTITLE10=Sir Duke
TTITLE11=Chicago
TTITLE12='S Wonderful
TTITLE13=Smile
TTITLE14=What A Wonderful World
TTITLE15=Summertime
EXTD=YEAR: 2004
EXTT0=
EXTT1=
EXTT2=
EXTT3=
EXTT4=
EXTT5=
EXTT6=
EXTT7=
EXTT8=
EXTT9=
EXTT10=
EXTT11=
EXTT12=
EXTT13=
EXTT14=
EXTT15=
PLAYORDER=
